<svg xmlns="http://www.w3.org/2000/svg"  viewBox="0 0 100 100" width="200px" height="200px"><path fill="#f1bc19" d="M79 12A1 1 0 1 0 79 14A1 1 0 1 0 79 12Z"/><path fill="#c0e5e4" d="M50 13A37 37 0 1 0 50 87A37 37 0 1 0 50 13Z"/><path fill="#f1bc19" d="M85 11A4 4 0 1 0 85 19A4 4 0 1 0 85 11Z"/><path fill="#00a5a5" d="M13 27A2 2 0 1 0 13 31A2 2 0 1 0 13 27Z"/><path fill="#fbcd59" d="M80 76A2 2 0 1 0 80 80 2 2 0 1 0 80 76zM26 72A4 4 0 1 0 26 80 4 4 0 1 0 26 72z"/><path fill="#00a5a5" d="M27 85A2 2 0 1 0 27 89A2 2 0 1 0 27 85Z"/><path fill="#fff" d="M58.5 78A2.5 2.5 0 1 0 58.5 83 2.5 2.5 0 1 0 58.5 78zM23.029 68A.971.971 0 1 0 23.029 69.94200000000001.971.971 0 1 0 23.029 68z"/><path fill="#f1bc19" d="M85 30A1 1 0 1 0 85 32A1 1 0 1 0 85 30Z"/><path fill="#fff" d="M78 66A2 2 0 1 0 78 70 2 2 0 1 0 78 66zM79 33A1 1 0 1 0 79 35 1 1 0 1 0 79 33z"/><g><path fill="#fefdef" d="M56.262,25.75c-2.393,0-4.474,0.302-6.242,0.905c-1.769-0.603-3.85-0.905-6.242-0.905 c-10.3,0-16.09,6.132-16.09,15.078c0,6.433,4.333,9.952,6.206,16.485C35.974,64.752,36.806,74,41.696,74 c2.601,0,3.816-1.718,3.816-4.935c0-4.523,1.282-10.345,2.219-15.371c0.52-2.412,4.058-2.412,4.474,0 c0.936,4.926,2.22,10.984,2.22,15.508c0,3.217,1.213,4.798,3.814,4.798c4.89,0,5.722-9.348,7.803-16.686 c1.873-6.534,6.207-10.052,6.207-16.485C72.353,31.882,66.562,25.75,56.262,25.75z"/><path fill="#472b29" d="M58.238,74.7c-2.995,0-4.515-1.85-4.515-5.498c0-3.938-0.995-9.093-1.874-13.641l-0.333-1.736 c-0.155-0.898-0.862-1.227-1.473-1.24c-0.64-0.041-1.425,0.309-1.629,1.256c-0.144,0.772-0.3,1.584-0.458,2.407 c-0.858,4.459-1.745,9.071-1.745,12.816c0,4.657-2.456,5.635-4.516,5.635c-4.41,0-5.805-6.005-7.28-12.363 c-0.374-1.61-0.76-3.274-1.196-4.835c-0.744-2.595-1.896-4.716-3.011-6.767c-1.657-3.049-3.222-5.928-3.222-9.907 c0-9.732,6.434-15.778,16.79-15.778c2.358,0,4.457,0.292,6.242,0.868c1.785-0.576,3.884-0.868,6.242-0.868 c5.27,0,9.613,1.578,12.563,4.562c2.751,2.782,4.177,6.664,4.124,11.225c0,3.97-1.565,6.849-3.222,9.897 c-1.115,2.051-2.268,4.172-3.013,6.773c-0.444,1.566-0.838,3.254-1.218,4.886C64.021,68.722,62.629,74.7,58.238,74.7z M50.008,51.186c0.021,0,0.044,0,0.065,0c1.445,0.03,2.579,0.991,2.82,2.39l0.331,1.721c0.891,4.609,1.899,9.834,1.899,13.906 c0,3.61,1.574,4.097,3.114,4.097c3.279,0,4.55-5.453,5.896-11.225c0.384-1.648,0.781-3.352,1.234-4.952 c0.788-2.75,1.979-4.94,3.129-7.058c1.638-3.013,3.052-5.615,3.052-9.237c0.049-4.187-1.237-7.722-3.72-10.232 c-2.681-2.712-6.681-4.146-11.567-4.146c-2.305,0-4.328,0.292-6.017,0.867c-0.146,0.05-0.305,0.05-0.451,0 c-1.688-0.576-3.712-0.867-6.017-0.867c-9.493,0-15.39,5.509-15.39,14.378c0,3.623,1.414,6.225,3.051,9.238 c1.15,2.117,2.341,4.307,3.128,7.054c0.446,1.595,0.836,3.275,1.213,4.9c1.347,5.801,2.619,11.279,5.917,11.279 c1.337,0,3.115-0.439,3.115-4.234c0-3.879,0.9-8.557,1.771-13.081c0.157-0.82,0.313-1.629,0.46-2.418 C47.399,51.91,48.776,51.186,50.008,51.186z"/></g><g><path fill="#472b29" d="M65.335,32.173c-0.059,0-0.118-0.021-0.166-0.063c-2.046-1.81-4.717-2.814-7.939-2.984 c-0.138-0.007-0.243-0.125-0.236-0.263c0.008-0.137,0.112-0.253,0.264-0.236c3.29,0.174,6.141,1.249,8.244,3.109 c0.104,0.091,0.112,0.249,0.021,0.353C65.473,32.145,65.404,32.173,65.335,32.173z"/></g><g><path fill="#472b29" d="M58.188,71.084c-0.646,0-1.046-0.329-1.046-1.968c0-0.138,0.112-0.25,0.25-0.25 s0.25,0.112,0.25,0.25c0,1.354,0.258,1.459,0.488,1.468c1.105-0.625,2.398-6.48,2.955-8.999c0.374-1.692,0.751-3.397,1.19-5.029 c0.857-3.156,2.264-5.639,3.505-7.831c1.529-2.702,2.735-4.833,2.735-7.617c0.014-1.277-0.123-2.485-0.406-3.593 c-0.034-0.134,0.047-0.27,0.181-0.304c0.131-0.036,0.269,0.046,0.304,0.18c0.294,1.15,0.436,2.402,0.422,3.72 c0,2.912-1.235,5.095-2.799,7.858c-1.228,2.168-2.618,4.623-3.459,7.717c-0.436,1.621-0.812,3.32-1.175,4.963 c-0.991,4.484-2.053,8.865-3.295,9.413C58.258,71.077,58.224,71.084,58.188,71.084z"/></g><g><path fill="#472b29" d="M43.289,60.536c-0.012,0-0.023-0.001-0.035-0.002c-0.137-0.02-0.232-0.146-0.212-0.283 c0.23-1.604,0.512-3.323,0.86-5.254c0.106-0.594,0.214-1.174,0.319-1.735c0.006-0.03,0.013-0.063,0.021-0.097 c0.578-2.663,2.954-4.507,5.793-4.507c0.03,0,0.06,0,0.089,0c0.139,0.002,0.249,0.115,0.247,0.253 c-0.002,0.137-0.113,0.247-0.25,0.247c-0.03,0-0.058,0-0.085,0c-2.603,0-4.777,1.684-5.307,4.119l-0.016,0.074 c-0.105,0.563-0.213,1.143-0.319,1.735c-0.348,1.926-0.629,3.639-0.858,5.237C43.519,60.446,43.412,60.536,43.289,60.536z"/></g><g><path fill="#472b29" d="M41.674,71.084c-0.138,0-0.249-0.112-0.25-0.25c0-0.138,0.112-0.25,0.25-0.25 c0.305,0,0.619-0.001,0.619-1.469c0-1.079,0.05-2.275,0.148-3.554c0.01-0.137,0.11-0.251,0.269-0.23 c0.138,0.01,0.24,0.13,0.229,0.268c-0.097,1.267-0.146,2.45-0.146,3.516C42.793,70.761,42.383,71.083,41.674,71.084 C41.675,71.084,41.675,71.084,41.674,71.084z"/></g><g><path fill="#f7931e" d="M48.944,54.437c0.001,0.006,0.002,0.012,0.003,0.018C48.946,54.449,48.945,54.443,48.944,54.437z"/></g><g><path fill="#472b29" d="M54.598,32.041c-0.199,0-0.397-0.085-0.536-0.25c-2.636-3.143-6.344-5.04-10.44-5.342 c-0.386-0.029-0.675-0.364-0.646-0.75c0.028-0.385,0.368-0.669,0.75-0.646c4.477,0.331,8.529,2.404,11.409,5.839 c0.249,0.296,0.21,0.738-0.086,0.986C54.916,31.987,54.757,32.041,54.598,32.041z"/></g><g><path fill="#472b29" d="M38.444,33.309c-0.193,0-0.378-0.113-0.46-0.303c-0.108-0.253,0.009-0.547,0.263-0.656l6.663-2.855 c0.251-0.108,0.547,0.008,0.657,0.263c0.108,0.253-0.009,0.547-0.263,0.656l-6.663,2.855 C38.577,33.296,38.511,33.309,38.444,33.309z"/></g><g><path fill="#472b29" d="M38.444,51.525c-0.193,0-0.378-0.113-0.46-0.303l-2.856-6.663c-0.108-0.253,0.009-0.547,0.263-0.656 c0.251-0.109,0.547,0.007,0.657,0.263l2.856,6.663c0.108,0.253-0.009,0.547-0.263,0.656C38.577,51.512,38.511,51.525,38.444,51.525 z"/></g><g><path fill="#472b29" d="M47.141,42.006c-0.045,0-0.092-0.006-0.138-0.019l-6.663-1.904 c-0.266-0.076-0.419-0.353-0.343-0.618c0.075-0.266,0.349-0.419,0.618-0.344l6.663,1.904c0.266,0.076,0.419,0.353,0.343,0.618 C47.559,41.863,47.358,42.006,47.141,42.006z"/></g><g><path fill="#472b29" d="M34.182,49.08c-1.584,0-3.111-0.336-4.538-0.999c-0.25-0.117-0.358-0.414-0.242-0.665 c0.115-0.251,0.415-0.359,0.664-0.243c1.294,0.602,2.679,0.906,4.116,0.906c5.391,0,9.776-4.385,9.776-9.776 c0-5.138-4.012-9.423-9.133-9.755c-0.275-0.018-0.484-0.256-0.467-0.531c0.019-0.276,0.256-0.48,0.531-0.467 c5.646,0.366,10.068,5.089,10.068,10.753C44.958,44.246,40.124,49.08,34.182,49.08z"/></g></svg>